<?xml version="1.0" encoding="UTF-8"?>
<svg id="Calque_2" data-name="Calque 2" xmlns="http://www.w3.org/2000/svg" viewBox="0 0 1027.16 169.32">
  <g id="Calque_1-2" data-name="Calque 1">
    <g>
      <path d="m108.9,89.8l-9.66,45.17H14.02c-10.09,0-16.87-10.36-12.83-19.61L47.88,8.4c2.23-5.1,7.27-8.4,12.83-8.4h46.18l-49.27,89.8h51.27Z" style="stroke-width: 0px;"/>
      <path d="m222.09,45.3l-19.16,90.02h-31.39l3.1-14.68h-.65c-1.79,3.53-4.12,6.58-6.97,9.13-2.85,2.56-6.1,4.5-9.74,5.83-3.64,1.33-7.56,2-11.74,2-5.71,0-10.68-1.09-14.92-3.26s-7.52-5.25-9.83-9.21c-2.31-3.97-3.47-8.64-3.47-14.03,0-1.9.09-3.85.29-5.83.19-1.98.48-3.82.86-5.5l11.58-54.47h32.29l-10.52,49.17c-.11.76-.2,1.54-.29,2.32-.08.79-.12,1.62-.12,2.49,0,3.81,1.06,6.77,3.18,8.89,2.12,2.12,5.08,3.18,8.89,3.18,2.55,0,4.86-.58,6.93-1.75,2.07-1.17,3.8-2.84,5.22-5.01,1.41-2.17,2.45-4.81,3.1-7.91l10.93-51.37h32.46Z" style="stroke-width: 0px;"/>
      <path d="m261.53,169.32c-9.3,0-17.27-1.17-23.93-3.51-6.66-2.34-11.76-5.71-15.29-10.11s-5.33-9.7-5.38-15.9h31.23c.49,2.72,2.07,4.84,4.73,6.36,2.66,1.52,6.14,2.28,10.44,2.28,4.67,0,8.37-.98,11.09-2.94,2.72-1.96,4.49-4.89,5.3-8.81l3.34-15.41h-1.63c-2.61,3.86-6.14,6.82-10.6,8.89-4.46,2.07-9.57,3.1-15.33,3.1s-11.13-1.36-15.62-4.08c-4.48-2.72-7.98-6.52-10.48-11.42-2.5-4.89-3.75-10.57-3.75-17.04,0-7.83,1.15-15.17,3.46-22.02s5.52-12.87,9.62-18.06c4.1-5.19,8.85-9.27,14.23-12.23,5.38-2.96,11.14-4.44,17.29-4.44s11.44,1.47,15.9,4.4c4.46,2.94,7.45,6.9,8.97,11.91h1.47l3.42-15h31.48l-19.82,93.2c-2.07,9.68-7.5,17.23-16.31,22.67-8.81,5.44-20.09,8.15-33.84,8.15Zm9.62-57.33c2.61,0,5.07-.73,7.38-2.2,2.31-1.47,4.36-3.48,6.16-6.03,1.79-2.55,3.21-5.49,4.24-8.81,1.03-3.32,1.55-6.82,1.55-10.52,0-4.57-1.14-8.22-3.42-10.97-2.28-2.74-5.33-4.12-9.13-4.12-2.66,0-5.17.71-7.5,2.12-2.34,1.41-4.39,3.38-6.16,5.91-1.77,2.53-3.15,5.46-4.16,8.81-1.01,3.34-1.51,6.92-1.51,10.72,0,4.51,1.14,8.15,3.42,10.93s5.33,4.16,9.13,4.16Z" style="stroke-width: 0px;"/>
      <path d="m341.58,45.21h32.54l.49,62.54h.65l26.83-62.54h34.41l-48.19,90.1h-37.84l-8.89-90.1Z" style="stroke-width: 0px;"/>
      <path d="m451.07,136.67c-4.95,0-9.41-1.06-13.37-3.18-3.97-2.12-7.09-5.02-9.38-8.68-2.28-3.67-3.42-7.84-3.42-12.52,0-9.35,3.7-16.78,11.09-22.3,7.39-5.52,17.48-8.41,30.25-8.68l19.65-.41,1.06-5.22c.11-.71.19-1.24.25-1.59.05-.35.08-.67.08-.94,0-2.07-1.01-3.74-3.02-5.02-2.01-1.28-4.65-1.92-7.91-1.92-2.01,0-3.83.27-5.46.82-1.63.54-3.02,1.35-4.16,2.41-1.14,1.06-1.99,2.38-2.53,3.96h-29.11c1.2-6.31,3.78-11.71,7.75-16.23,3.97-4.51,9.01-7.99,15.13-10.44,6.12-2.45,13.01-3.67,20.67-3.67s14.99,1.16,21,3.47c6.01,2.31,10.7,5.52,14.07,9.62,3.37,4.1,5.06,8.9,5.06,14.39,0,1.14-.07,2.41-.2,3.79-.14,1.39-.31,2.54-.53,3.47l-12.23,57.57h-31.39l2.28-10.6h-.65c-1.47,2.34-3.44,4.4-5.91,6.2-2.47,1.79-5.31,3.19-8.52,4.2-3.21,1.01-6.71,1.51-10.52,1.51Zm15.08-21.85c2.39,0,4.62-.46,6.69-1.39,2.06-.92,3.82-2.2,5.26-3.83s2.38-3.45,2.81-5.46l1.22-5.79-13.94.33c-3.64.05-6.59.9-8.85,2.53s-3.38,3.72-3.38,6.28c0,2.17.95,3.94,2.85,5.3,1.9,1.36,4.35,2.04,7.34,2.04Z" style="stroke-width: 0px;"/>
      <path d="m670.92,134.97l19.16-90.02h32.37l-19.16,90.02h-32.37Zm40.53-98.67c-4.46,0-8.22-1.54-11.29-4.61-3.07-3.07-4.61-6.73-4.61-10.97s1.54-7.9,4.61-10.97c3.07-3.07,6.84-4.61,11.29-4.61s8.22,1.54,11.29,4.61c3.07,3.07,4.61,6.73,4.61,10.97s-1.54,7.9-4.61,10.97c-3.07,3.07-6.84,4.61-11.29,4.61Z" style="stroke-width: 0px;"/>
      <path d="m716.38,134.97l19.16-90.02h31.23l-2.94,13.62h.65c3.21-5.16,7.47-9.1,12.8-11.82,5.33-2.72,10.98-4.08,16.96-4.08,5.44,0,10.18,1.06,14.23,3.18,4.05,2.12,7.2,5.08,9.46,8.89,2.25,3.81,3.38,8.26,3.38,13.37,0,1.69-.1,3.44-.29,5.26-.19,1.82-.5,3.74-.94,5.75l-11.74,55.86h-32.05l10.68-50.88c.22-1.09.37-2.07.45-2.94.08-.87.12-1.74.12-2.61,0-3.15-1.12-5.73-3.34-7.75-2.23-2.01-5.11-3.02-8.64-3.02-2.5,0-4.85.6-7.05,1.79-2.2,1.2-4.06,2.87-5.59,5.01-1.52,2.15-2.58,4.66-3.18,7.54l-11.25,52.84h-32.13Z" style="stroke-width: 0px;"/>
      <path d="m857.8,136.25c-6.14,0-11.46-1.39-15.94-4.16-4.49-2.77-7.94-6.71-10.36-11.82-2.42-5.11-3.63-11.17-3.63-18.18,0-8.37,1.13-16.12,3.38-23.24,2.25-7.12,5.41-13.32,9.46-18.59,4.05-5.27,8.81-9.36,14.27-12.27,5.46-2.91,11.43-4.36,17.9-4.36,4.35,0,8.25.63,11.7,1.88,3.45,1.25,6.35,3.04,8.68,5.38,2.34,2.34,4,5.17,4.97,8.48h.65l8.97-42.08h32.37l-25.12,117.67h-31.48l2.69-12.64h-.65c-3.32,4.68-7.27,8.17-11.86,10.48-4.59,2.31-9.94,3.47-16.02,3.47Zm16.06-24.54c2.61,0,5.07-.73,7.38-2.2,2.31-1.47,4.36-3.49,6.16-6.08,1.79-2.58,3.21-5.53,4.24-8.85,1.03-3.32,1.55-6.82,1.55-10.52,0-4.51-1.14-8.15-3.42-10.93s-5.3-4.16-9.05-4.16c-2.66,0-5.18.71-7.54,2.12-2.37,1.41-4.43,3.38-6.2,5.91-1.77,2.53-3.15,5.45-4.16,8.77-1.01,3.32-1.51,6.9-1.51,10.76,0,4.51,1.15,8.17,3.47,10.97,2.31,2.8,5.34,4.2,9.09,4.2Z" style="stroke-width: 0px;"/>
      <path d="m959.47,136.25c-4.95,0-9.41-1.06-13.37-3.18-3.97-2.12-7.09-5.02-9.38-8.68-2.28-3.67-3.42-7.84-3.42-12.52,0-9.35,3.7-16.78,11.09-22.3,7.39-5.52,17.48-8.41,30.25-8.68l19.65-.41,1.06-5.22c.11-.71.19-1.24.25-1.59.05-.35.08-.67.08-.94,0-2.07-1.01-3.74-3.02-5.02-2.01-1.28-4.65-1.92-7.91-1.92-2.01,0-3.83.27-5.46.82-1.63.54-3.02,1.35-4.16,2.41-1.14,1.06-1.98,2.38-2.53,3.96h-29.11c1.2-6.31,3.78-11.71,7.75-16.23,3.97-4.51,9.01-7.99,15.13-10.44,6.12-2.45,13.01-3.67,20.67-3.67s14.99,1.16,21,3.47c6.01,2.31,10.7,5.52,14.07,9.62,3.37,4.1,5.06,8.9,5.06,14.39,0,1.14-.07,2.41-.2,3.79-.14,1.39-.31,2.54-.53,3.47l-12.23,57.57h-31.39l2.28-10.6h-.65c-1.47,2.34-3.44,4.4-5.91,6.2s-5.31,3.19-8.52,4.2c-3.21,1.01-6.71,1.51-10.52,1.51Zm15.09-21.85c2.39,0,4.62-.46,6.69-1.39,2.07-.92,3.82-2.2,5.26-3.83s2.38-3.45,2.81-5.46l1.22-5.79-13.94.33c-3.64.05-6.59.9-8.85,2.53s-3.38,3.72-3.38,6.28c0,2.17.95,3.94,2.85,5.3,1.9,1.36,4.35,2.04,7.34,2.04Z" style="stroke-width: 0px;"/>
      <path d="m667.49,89.8l-9.66,45.17h-85.22c-10.09,0-16.87-10.36-12.83-19.61l46.7-106.96c2.23-5.1,7.27-8.4,12.83-8.4h46.18l-49.27,89.8h51.27Z" style="stroke-width: 0px;"/>
    </g>
  </g>
</svg>